<svg width="30" height="30" viewBox="0 0 30 30" fill="none" stroke-width="10" xmlns="http://www.w3.org/2000/svg">
<path d="M12.3422 1.36317C12.563 1.52818 12.7668 1.70136 12.9703 1.88741C13.0502 1.95848 13.1301 2.02955 13.2124 2.10277C13.9343 2.78163 14.5076 3.5816 14.9505 4.47019C14.9973 4.3885 15.0442 4.3068 15.0924 4.22263C15.5389 3.46638 16.0112 2.81097 16.6337 2.18543C16.7015 2.11615 16.7694 2.04687 16.8394 1.9755C18.4851 0.400831 20.5326 -0.0548285 22.7402 -0.0267785C24.4859 0.0256562 26.1448 0.810773 27.4257 1.98675C27.4932 2.0454 27.5608 2.10405 27.6303 2.16447C29.1119 3.53167 29.8972 5.58755 29.9996 7.57295C30.002 9.84665 29.2285 11.8944 27.633 13.5181C27.0085 14.1252 26.2983 14.5749 25.5445 15C25.6331 15.0542 25.7217 15.1083 25.813 15.1641C27.866 16.4399 29.2738 18.114 29.8333 20.4993C30.2234 22.5837 29.8734 24.7315 28.7129 26.5232C28.4649 26.8698 28.201 27.1957 27.9208 27.5166C27.8327 27.6191 27.8327 27.6191 27.7429 27.7238C26.5044 29.0673 24.5784 29.9653 22.761 30.0431C22.5565 30.0454 22.3518 30.0455 22.1473 30.0435C22.039 30.0426 21.9308 30.0417 21.8193 30.0407C19.9461 30.0007 18.2137 29.2884 16.8317 28.0132C16.716 27.9091 16.716 27.9091 16.5981 27.8029C16.0369 27.272 15.6356 26.6923 15.2475 26.0265C15.1486 25.8609 15.0496 25.6953 14.9505 25.5298C14.9036 25.6115 14.8568 25.6932 14.8085 25.7774C14.3618 26.534 13.8894 27.1883 13.2673 27.8146C13.1563 27.9294 13.1563 27.9294 13.043 28.0466C11.4175 29.6289 9.35492 30.0547 7.1608 30.0268C5.06097 29.9637 3.29082 28.8815 1.86261 27.3986C0.245469 25.5469 -0.141662 23.3628 -1.35424e-05 20.9603C0.223897 19.0195 1.33674 17.2862 2.78 16.0201C3.96158 15.0993 3.96158 15.0993 4.45543 15.0993C4.45543 15.0338 4.45543 14.9682 4.45543 14.9007C4.37783 14.8822 4.30023 14.8638 4.22028 14.8448C2.5306 14.1725 1.30249 12.5972 0.548795 10.9966C-0.235281 9.16683 -0.295298 6.93604 0.396026 5.06622C1.19187 3.09753 2.60822 1.48309 4.55444 0.596023C7.19576 -0.473292 9.96113 -0.18613 12.3422 1.36317ZM2.44468 3.5455C1.31056 5.02324 0.802277 6.78474 0.990085 8.64238C1.247 10.4381 2.12313 12.0407 3.50478 13.2173C4.33762 13.8422 5.18766 14.2626 6.19313 14.534C6.43563 14.6026 6.43563 14.6026 6.53464 14.702C6.53868 14.9006 6.53885 15.0994 6.53464 15.298C6.43254 15.3349 6.33043 15.3718 6.22523 15.4098C6.06418 15.4714 5.90332 15.5336 5.74256 15.596C5.58443 15.656 5.58443 15.656 5.4231 15.7171C3.66998 16.4191 2.3337 17.6197 1.55398 19.3534C0.808666 21.1301 0.772388 22.9421 1.46507 24.7415C2.20955 26.5389 3.52991 27.8102 5.31635 28.584C7.07568 29.2538 8.83211 29.1429 10.5635 28.4665C11.4529 28.059 12.0976 27.5132 12.7723 26.8212C12.8382 26.7582 12.9042 26.6952 12.9722 26.6303C13.7365 25.8479 14.245 24.679 14.498 23.6245C14.5544 23.4437 14.5544 23.4437 14.7525 23.245C15.0619 23.2326 15.0619 23.2326 15.3465 23.245C15.3588 23.3126 15.371 23.3803 15.3837 23.4499C15.7063 24.9713 16.4153 26.1524 17.5247 27.2185C17.6182 27.31 17.6182 27.31 17.7135 27.4032C19.0951 28.6717 20.9157 29.1022 22.7462 29.0235C24.514 28.89 26.0391 28.0056 27.2277 26.7219C28.4987 25.2002 29.0693 23.4518 28.9325 21.4769C28.7439 19.5727 27.8182 18.0795 26.4368 16.8051C25.565 16.0934 24.4557 15.6316 23.3663 15.3973C23.3539 14.8262 23.3539 14.8262 23.4653 14.6026C23.6896 14.5233 23.912 14.4529 24.1398 14.3853C25.7868 13.8593 27.1318 12.8213 28.0198 11.3245C28.0652 11.2496 28.1107 11.1747 28.1575 11.0975C29.0247 9.5276 29.1579 7.63882 28.6967 5.92354C28.3803 4.85848 27.8594 4.00587 27.1287 3.1788C27.0773 3.11785 27.0258 3.0569 26.9728 2.9941C25.8683 1.77702 24.219 1.07315 22.5998 0.969703C20.4577 0.911948 18.7268 1.62272 17.1658 3.1043C16.1886 4.11378 15.5981 5.37816 15.3465 6.75496C15.0681 6.78601 15.0681 6.78601 14.7525 6.75496C14.5111 6.42391 14.3909 6.0901 14.276 5.6995C13.9208 4.6064 13.3807 3.79191 12.5742 2.98013C12.4988 2.90214 12.4234 2.82416 12.3457 2.74381C11.0667 1.49852 9.32397 0.920786 7.56044 0.946833C5.4943 1.03766 3.77771 1.98628 2.44468 3.5455Z" fill="#3CB270"/>
</svg>
